<svg width="63" height="62" viewBox="0 0 63 62" fill="none" xmlns="http://www.w3.org/2000/svg">
    <path opacity="0.21" fill-rule="evenodd" clip-rule="evenodd"
        d="M0.935547 31V38.2333C0.935547 51.3593 11.5873 62 24.727 62H31.9679H39.2087C52.3484 62 63.0002 51.3593 63.0002 38.2333V31V23.7667C63.0002 10.6407 52.3484 0 39.2087 0H31.9679H24.727C11.5873 0 0.935547 10.6407 0.935547 23.7667V31Z"
        fill="white" />
    <path opacity="0.587821" fill-rule="evenodd" clip-rule="evenodd"
        d="M22.3154 24.1122C22.3154 27.1559 24.7854 29.6233 27.8323 29.6233C30.8792 29.6233 33.3491 27.1559 33.3491 24.1122C33.3491 21.0685 30.8792 18.6011 27.8323 18.6011C24.7854 18.6011 22.3154 21.0685 22.3154 24.1122ZM36.1076 29.6233C36.1076 31.9061 37.96 33.7566 40.2452 33.7566C42.5304 33.7566 44.3828 31.9061 44.3828 29.6233C44.3828 27.3405 42.5304 25.49 40.2452 25.49C37.96 25.49 36.1076 27.3405 36.1076 29.6233Z"
        fill="white" />
    <path fill-rule="evenodd" clip-rule="evenodd"
        d="M27.8079 32.3779C21.2961 32.3779 15.9535 35.7211 15.4189 42.2968C15.3897 42.655 16.0755 43.4002 16.4213 43.4002H39.2048C40.2409 43.4002 40.257 42.5672 40.2409 42.2979C39.8368 35.5374 34.4114 32.3779 27.8079 32.3779ZM47.7687 43.4002L42.4506 43.4002C42.4506 40.2989 41.4248 37.4369 39.6938 35.1343C44.3921 35.1856 48.2283 37.5586 48.517 42.5735C48.5286 42.7755 48.517 43.4002 47.7687 43.4002Z"
        fill="white" />
</svg>