<svg width="30" height="30" viewBox="0 0 30 30" fill="none" xmlns="http://www.w3.org/2000/svg">
<g clip-path="url(#clip0_62_344)">
<path d="M15 0C10.852 0 7.5 3.36243 7.5 7.49999H11.25C11.25 5.43645 12.9365 3.75 15 3.75C17.0635 3.75 18.75 5.43645 18.75 7.49999H22.5C22.5 3.36243 19.148 0 15 0Z" fill="#7D887A"/>
<path d="M26.25 15H30C30 10.8624 26.648 7.5 22.5 7.5V11.25C24.5635 11.25 26.25 12.9364 26.25 15Z" fill="#7D887A"/>
<path d="M22.5 18.75V22.5C26.648 22.5 30 19.148 30 15H26.25C26.25 17.0635 24.5635 18.75 22.5 18.75Z" fill="#7D887A"/>
<path d="M15.0001 18.4986V21.9972C18.8758 21.9972 21.9973 18.8548 21.9973 15C21.9973 11.1243 18.8758 8.00281 15.0001 8.00281C11.1244 8.00281 8.00293 11.1243 8.00293 15C8.00293 18.8548 11.1244 21.9972 15.0001 21.9972V18.4986C13.0728 18.4986 11.5015 16.9274 11.5015 15C11.5015 13.0726 13.0728 11.5014 15.0001 11.5014C16.9275 11.5014 18.4987 13.0726 18.4987 15C18.4987 16.9274 16.9275 18.4986 15.0001 18.4986Z" fill="#7D887A"/>
<path d="M3.75 15H0C0 19.148 3.35196 22.5 7.5 22.5V18.75C5.43645 18.75 3.75 17.0635 3.75 15Z" fill="#7D887A"/>
<path d="M0 15H3.75C3.75 12.9364 5.43645 11.25 7.5 11.25V7.5C3.35196 7.5 0 10.8624 0 15Z" fill="#7D887A"/>
<path d="M15 26.25C12.9365 26.25 11.25 24.5635 11.25 22.5H7.5C7.5 26.648 10.852 30 15 30C19.148 30 22.5 26.648 22.5 22.5H18.75C18.75 24.5635 17.0635 26.25 15 26.25Z" fill="#7D887A"/>
</g>
<defs>
<clipPath id="clip0_62_344">
<rect width="30" height="30" fill="white"/>
</clipPath>
</defs>
</svg>
