<svg width="106" height="107" viewBox="0 0 106 107" fill="none" xmlns="http://www.w3.org/2000/svg">
<path d="M36.4998 7.99881C41.0188 5.02276 46.2586 3.32435 51.6643 3.08346C57.0699 2.84257 62.44 4.06818 67.2059 6.63047C71.9717 9.19275 75.9558 12.9963 78.7363 17.6383C81.5167 22.2803 82.9899 27.5878 82.9998 32.9988C83.0077 41.4215 84.0147 49.8134 85.9998 57.9988M78 77.999H8C8 77.999 23 67.999 23 32.999C22.9674 30.0971 23.4761 27.2145 24.5 24.499M44.5002 98C45.3372 99.5222 46.5675 100.792 48.0627 101.676C49.5579 102.56 51.2631 103.027 53.0002 103.027C54.7373 103.027 56.4426 102.56 57.9378 101.676C59.433 100.792 60.6633 99.5222 61.5002 98M3 3L103 103" 
stroke="#383838" stroke-width="6" stroke-linecap="round" stroke-linejoin="round"/>
</svg>
