<svg width="130" height="106" viewBox="0 0 130 106" fill="none" xmlns="http://www.w3.org/2000/svg">
<path d="M126.666 53.0001H89.6663L77.333 71.5001H52.6663L40.333 53.0001H3.33301M126.666 53.0001V90.0001C126.666 93.2711 125.367 96.4081 123.054 98.7211C120.741 101.034 117.604 102.333 114.333 102.333H15.6663C12.3953 102.333 9.25831 101.034 6.94536 98.7211C4.63241 96.4081 3.33301 93.2711 3.33301 90.0001V53.0001M126.666 53.0001L105.391 10.5117C104.37 8.45694 102.796 6.7277 100.846 5.51847C98.8962 4.30924 96.6475 3.66797 94.353 3.66675H35.6463C33.3518 3.66797 31.1031 4.30924 29.1531 5.51847C27.2031 6.7277 25.6291 8.45694 24.608 10.5117L3.33301 53.0001" 
stroke="#383838" stroke-width="6" stroke-linecap="round" stroke-linejoin="round"/>
</svg>
