<svg width="25" height="25" viewBox="0 0 31 33" fill="none" xmlns="http://www.w3.org/2000/svg">
<path d="M13.0205 29.6248C13.2646 30.0688 13.6235 30.4391 14.0596 30.697C14.4957 30.9549 14.9931 31.0909 15.4997 31.0909C16.0064 31.0909 16.5037 30.9549 16.9398 30.697C17.3759 30.4391 17.7348 30.0688 17.9789 29.6248M6.75 10.6665C6.75 8.34586 7.67187 6.12026 9.31282 4.47932C10.9538 2.83838 13.1794 1.9165 15.5 1.9165C17.8206 1.9165 20.0462 2.83838 21.6872 4.47932C23.3281 6.12026 24.25 8.34586 24.25 10.6665C24.25 20.8748 28.625 23.7915 28.625 23.7915H2.375C2.375 23.7915 6.75 20.8748 6.75 10.6665Z" 
stroke="#383838" stroke-width="3" stroke-linecap="round" stroke-linejoin="round"/>
</svg>
