<svg width="28" height="28" viewBox="0 0 28 28" fill="none" xmlns="http://www.w3.org/2000/svg">
<path d="M17.5751 5.85943L22.3674 10.6572M19.9713 3.46074C20.2764 3.09975 20.6538 2.80592 21.0795 2.59796C21.5052 2.39001 21.9698 2.2725 22.4437 2.25293C22.9176 2.23335 23.3904 2.31214 23.832 2.48426C24.2735 2.65639 24.6742 2.91808 25.0084 3.25266C25.3426 3.58724 25.603 3.98737 25.773 4.42753C25.9431 4.8677 26.019 5.33826 25.996 5.80921C25.9729 6.28016 25.8515 6.74118 25.6393 7.16287C25.4271 7.58457 25.1289 7.9577 24.7636 8.25848L8.58947 24.4508L2 26.25L3.79713 19.6531L19.9713 3.46074Z" stroke="#383838" stroke-width="3" stroke-linecap="round" stroke-linejoin="round"/>
</svg>
