<svg width="33" height="33" viewBox="0 0 33 33" fill="none" xmlns="http://www.w3.org/2000/svg">
<path d="M1.91699 9.20842L8.34824 2.77717C8.61958 2.50421 8.94225 2.28766 9.29766 2.13999C9.65308 1.99231 10.0342 1.91644 10.4191 1.91675H22.5816C22.9664 1.91644 23.3476 1.99231 23.703 2.13999C24.0584 2.28766 24.3811 2.50421 24.6524 2.77717L31.0837 9.20842M1.91699 9.20842H31.0837M1.91699 9.20842V13.5834C1.91699 14.357 2.22428 15.0988 2.77126 15.6458C3.31824 16.1928 4.06011 16.5001 4.83366 16.5001M31.0837 9.20842V13.5834C31.0837 14.357 30.7764 15.0988 30.2294 15.6458C29.6824 16.1928 28.9405 16.5001 28.167 16.5001M4.83366 16.5001V28.1667C4.83366 28.9403 5.14095 29.6822 5.68793 30.2291C6.23491 30.7761 6.97678 31.0834 7.75033 31.0834H25.2503C26.0239 31.0834 26.7657 30.7761 27.3127 30.2291C27.8597 29.6822 28.167 28.9403 28.167 28.1667V16.5001M4.83366 16.5001C5.68571 16.4532 6.49947 16.1308 7.15241 15.5813C7.32642 15.4556 7.53564 15.3879 7.75033 15.3879C7.96501 15.3879 8.17423 15.4556 8.34824 15.5813C9.00118 16.1308 9.81494 16.4532 10.667 16.5001C11.519 16.4532 12.3328 16.1308 12.9857 15.5813C13.1597 15.4556 13.369 15.3879 13.5837 15.3879C13.7983 15.3879 14.0076 15.4556 14.1816 15.5813C14.8345 16.1308 15.6483 16.4532 16.5003 16.5001C17.3524 16.4532 18.1661 16.1308 18.8191 15.5813C18.9931 15.4556 19.2023 15.3879 19.417 15.3879C19.6317 15.3879 19.8409 15.4556 20.0149 15.5813C20.6678 16.1308 21.4816 16.4532 22.3337 16.5001C23.1857 16.4532 23.9995 16.1308 24.6524 15.5813C24.8264 15.4556 25.0356 15.3879 25.2503 15.3879C25.465 15.3879 25.6742 15.4556 25.8482 15.5813C26.5012 16.1308 27.3149 16.4532 28.167 16.5001M20.8753 31.0834V25.2501C20.8753 24.4765 20.568 23.7347 20.0211 23.1877C19.4741 22.6407 18.7322 22.3334 17.9587 22.3334H15.042C14.2684 22.3334 13.5266 22.6407 12.9796 23.1877C12.4326 23.7347 12.1253 24.4765 12.1253 25.2501V31.0834" 
stroke="#383838" stroke-width="3" stroke-linecap="round" stroke-linejoin="round"/>
</svg>
