<svg width="143" height="44" viewBox="0 0 143 44" fill="none" xmlns="http://www.w3.org/2000/svg">
<g clip-path="url(#clip0_344_50)">
<path d="M15 11C10.852 11 7.5 14.3624 7.5 18.5H11.25C11.25 16.4364 12.9365 14.75 15 14.75C17.0635 14.75 18.75 16.4364 18.75 18.5H22.5C22.5 14.3624 19.148 11 15 11Z" fill="#7D887A"/>
<path d="M26.25 26H30C30 21.8624 26.648 18.5 22.5 18.5V22.25C24.5635 22.25 26.25 23.9364 26.25 26Z" fill="#7D887A"/>
<path d="M22.5 29.75V33.5C26.648 33.5 30 30.148 30 26H26.25C26.25 28.0635 24.5635 29.75 22.5 29.75Z" fill="#7D887A"/>
<path d="M15.0001 29.4987V32.9973C18.8758 32.9973 21.9973 29.8549 21.9973 26.0001C21.9973 22.1244 18.8758 19.0029 15.0001 19.0029C11.1244 19.0029 8.00293 22.1244 8.00293 26.0001C8.00293 29.8549 11.1244 32.9973 15.0001 32.9973V29.4987C13.0728 29.4987 11.5015 27.9275 11.5015 26.0001C11.5015 24.0728 13.0728 22.5015 15.0001 22.5015C16.9275 22.5015 18.4987 24.0728 18.4987 26.0001C18.4987 27.9275 16.9275 29.4987 15.0001 29.4987Z" fill="#7D887A"/>
<path d="M3.75 26H0C0 30.148 3.35196 33.5 7.5 33.5V29.75C5.43645 29.75 3.75 28.0635 3.75 26Z" fill="#7D887A"/>
<path d="M0 26H3.75C3.75 23.9364 5.43645 22.25 7.5 22.25V18.5C3.35196 18.5 0 21.8624 0 26Z" fill="#7D887A"/>
<path d="M15 37.25C12.9365 37.25 11.25 35.5635 11.25 33.5H7.5C7.5 37.648 10.852 41 15 41C19.148 41 22.5 37.648 22.5 33.5H18.75C18.75 35.5635 17.0635 37.25 15 37.25Z" fill="#7D887A"/>
</g>
<path d="M38.304 35L32.352 17.688H36.192L40.736 31.48H39.392L44.032 17.688H47.328L51.936 31.48H50.592L55.168 17.688H59.008L53.024 35H49.76L45.088 20.888H46.272L41.6 35H38.304ZM68.5665 35.384C66.9025 35.384 65.3772 34.9893 63.9905 34.2C62.6252 33.4107 61.5372 32.3333 60.7265 30.968C59.9158 29.6027 59.5105 28.056 59.5105 26.328C59.5105 24.5787 59.9158 23.032 60.7265 21.688C61.5372 20.3227 62.6252 19.256 63.9905 18.488C65.3558 17.6987 66.8812 17.304 68.5665 17.304C70.2732 17.304 71.7985 17.6987 73.1425 18.488C74.5078 19.256 75.5852 20.3227 76.3745 21.688C77.1852 23.032 77.5905 24.5787 77.5905 26.328C77.5905 28.0773 77.1852 29.6347 76.3745 31C75.5638 32.3653 74.4758 33.4427 73.1105 34.232C71.7452 35 70.2305 35.384 68.5665 35.384ZM68.5665 32.024C69.5905 32.024 70.4972 31.7787 71.2865 31.288C72.0758 30.7973 72.6945 30.1253 73.1425 29.272C73.6118 28.3973 73.8465 27.416 73.8465 26.328C73.8465 25.24 73.6118 24.2693 73.1425 23.416C72.6945 22.5627 72.0758 21.8907 71.2865 21.4C70.4972 20.9093 69.5905 20.664 68.5665 20.664C67.5638 20.664 66.6572 20.9093 65.8465 21.4C65.0572 21.8907 64.4278 22.5627 63.9585 23.416C63.5105 24.2693 63.2865 25.24 63.2865 26.328C63.2865 27.416 63.5105 28.3973 63.9585 29.272C64.4278 30.1253 65.0572 30.7973 65.8465 31.288C66.6572 31.7787 67.5638 32.024 68.5665 32.024ZM80.1608 35V17.688H83.6168V21.176L83.2968 20.664C83.6808 19.5333 84.2994 18.7227 85.1528 18.232C86.0061 17.72 87.0301 17.464 88.2248 17.464H89.2808V20.76H87.7768C86.5821 20.76 85.6114 21.1333 84.8648 21.88C84.1394 22.6053 83.7768 23.6507 83.7768 25.016V35H80.1608ZM90.7945 35V10.776H94.4105V27L93.0025 26.648L101.674 17.688H106.187L99.6585 24.632L106.475 35H102.314L96.2345 25.816L98.3785 25.528L93.2585 30.968L94.4105 28.568V35H90.7945ZM113.175 35.384C112.001 35.384 110.967 35.1813 110.071 34.776C109.196 34.3493 108.513 33.7733 108.023 33.048C107.532 32.3013 107.287 31.4267 107.287 30.424C107.287 29.4853 107.489 28.6427 107.895 27.896C108.321 27.1493 108.972 26.52 109.847 26.008C110.721 25.496 111.82 25.1333 113.143 24.92L119.159 23.928V26.776L113.847 27.704C112.887 27.8747 112.183 28.184 111.735 28.632C111.287 29.0587 111.063 29.6133 111.063 30.296C111.063 30.9573 111.308 31.5013 111.799 31.928C112.311 32.3333 112.961 32.536 113.751 32.536C114.732 32.536 115.585 32.3227 116.311 31.896C117.057 31.4693 117.633 30.904 118.039 30.2C118.444 29.4747 118.647 28.6747 118.647 27.8V23.352C118.647 22.4987 118.327 21.8053 117.687 21.272C117.068 20.7173 116.236 20.44 115.191 20.44C114.231 20.44 113.388 20.696 112.663 21.208C111.959 21.6987 111.436 22.3387 111.095 23.128L108.087 21.624C108.407 20.7707 108.929 20.024 109.655 19.384C110.38 18.7227 111.223 18.2107 112.183 17.848C113.164 17.4853 114.199 17.304 115.287 17.304C116.652 17.304 117.857 17.56 118.903 18.072C119.969 18.584 120.791 19.2987 121.367 20.216C121.964 21.112 122.263 22.1573 122.263 23.352V35H118.807V31.864L119.543 31.96C119.137 32.664 118.615 33.272 117.975 33.784C117.356 34.296 116.641 34.6907 115.831 34.968C115.041 35.2453 114.156 35.384 113.175 35.384ZM125.531 35V10.776H129.147V35H125.531ZM132.414 35V10.776H136.03V35H132.414Z" fill="#383838"/>
<defs>
<clipPath id="clip0_344_50">
<rect width="30" height="30" fill="white" transform="translate(0 11)"/>
</clipPath>
</defs>
</svg>
