<svg width="81" height="81" viewBox="0 0 81 81" fill="none" xmlns="http://www.w3.org/2000/svg">
<path d="M8.26879 59.8387H24.4013V69.4912C24.4013 70.3864 24.0457 71.2448 23.4128 71.8777C22.7798 72.5107 21.9214 72.8662 21.0263 72.8662H11.5088C10.6137 72.8662 9.75524 72.5107 9.1223 71.8777C8.48937 71.2448 8.13379 70.3864 8.13379 69.4912V59.8387H8.26879Z" stroke="#7D887A" stroke-width="5" stroke-miterlimit="10"/>
<path d="M56.5989 59.8387H72.6976V69.4912C72.6976 70.3864 72.342 71.2448 71.7091 71.8777C71.0762 72.5107 70.2177 72.8662 69.3226 72.8662H59.8389C58.9438 72.8662 58.0853 72.5107 57.4524 71.8777C56.8195 71.2448 56.4639 70.3864 56.4639 69.4912V59.8387H56.5989Z" stroke="#7D887A" stroke-width="5" stroke-miterlimit="10"/>
<path d="M17.955 30.8475H63.045C64.7495 30.8474 66.4371 31.1853 68.0101 31.8417C69.5832 32.498 71.0105 33.4597 72.2094 34.6713C73.4084 35.8828 74.3552 37.32 74.9951 38.8998C75.635 40.4796 75.9553 42.1706 75.9375 43.875V59.9738H5.06247V43.875C5.04463 42.1706 5.36492 40.4796 6.00484 38.8998C6.64475 37.32 7.59158 35.8828 8.79054 34.6713C9.9895 33.4597 11.4168 32.498 12.9898 31.8417C14.5629 31.1853 16.2505 30.8474 17.955 30.8475Z" stroke="#7D887A" stroke-width="5" stroke-miterlimit="10"/>
<path d="M54.9788 8.2688H26.0213C24.6222 8.27455 23.2629 8.73536 22.1488 9.58165C21.0346 10.4279 20.226 11.6138 19.8451 12.96L14.7151 30.8476H66.2851L61.1551 12.96C60.7742 11.6138 59.9656 10.4279 58.8514 9.58165C57.7372 8.73536 56.378 8.27455 54.9788 8.2688Z" stroke="#7D887A" stroke-width="5" stroke-miterlimit="10"/>
<path d="M16.335 50.1525C19.0005 50.1525 21.1613 47.9917 21.1613 45.3263C21.1613 42.6608 19.0005 40.5 16.335 40.5C13.6696 40.5 11.5088 42.6608 11.5088 45.3263C11.5088 47.9917 13.6696 50.1525 16.335 50.1525Z" fill="#7D887A"/>
<path d="M64.6651 50.1525C67.3306 50.1525 69.4914 47.9917 69.4914 45.3263C69.4914 42.6608 67.3306 40.5 64.6651 40.5C61.9997 40.5 59.8389 42.6608 59.8389 45.3263C59.8389 47.9917 61.9997 50.1525 64.6651 50.1525Z" fill="#7D887A"/>
<path d="M75.9375 24.4012H64.4287" stroke="#7D887A" stroke-width="5" stroke-miterlimit="10"/>
<path d="M16.5713 24.4012H5.0625" stroke="#7D887A" stroke-width="5" stroke-miterlimit="10"/>
</svg>
