<svg width="81" height="81" viewBox="0 0 81 81" fill="none" xmlns="http://www.w3.org/2000/svg">
<path d="M5.0625 50.2538H11.5088L28.3837 59.94C32.0765 62.0366 36.2536 63.1303 40.5 63.1125" stroke="#7D887A" stroke-width="5" stroke-miterlimit="10"/>
<path d="M64.665 53.0213L69.4913 50.2538H75.9375" stroke="#7D887A" stroke-width="5" stroke-miterlimit="10"/>
<path d="M40.5 63.1125C44.7235 63.1185 48.8759 62.0252 52.5488 59.94L59.2988 55.9912L46.8788 37.3612L37.935 39.5887C37.0611 39.7933 36.1663 39.8953 35.2688 39.8925C33.5708 39.8927 31.8959 39.5 30.375 38.745C29.5099 38.319 28.7854 37.6532 28.288 36.827C27.7907 36.0008 27.5414 35.049 27.5698 34.0851C27.5983 33.1211 27.9033 32.1857 28.4485 31.3903C28.9938 30.5948 29.7562 29.973 30.645 29.5988L47.79 22.275C49.7285 21.4518 51.8409 21.1226 53.938 21.317C56.035 21.5114 58.0509 22.2233 59.805 23.3887L66.285 27.675H75.9375" stroke="#7D887A" stroke-width="5" stroke-miterlimit="10"/>
<path d="M5.0625 27.675H14.715L21.195 23.3887C22.9491 22.2233 24.9651 21.5114 27.0621 21.317C29.1591 21.1226 31.2716 21.4518 33.21 22.275L40.5 25.4138" stroke="#7D887A" stroke-width="5" stroke-miterlimit="10"/>
<path d="M75.9375 21.2625V56.6999" stroke="#7D887A" stroke-width="5" stroke-miterlimit="10"/>
<path d="M5.0625 21.2625V56.6999" stroke="#7D887A" stroke-width="5" stroke-miterlimit="10"/>
</svg>
