<svg width="81" height="81" viewBox="0 0 81 81" fill="none" xmlns="http://www.w3.org/2000/svg">
<path d="M56.5988 53.3925C54.8918 53.3837 53.2573 52.7017 52.0504 51.4947C50.8434 50.2877 50.1614 48.6532 50.1525 46.9463V30.8476C50.1525 24.8651 47.7783 19.1273 43.5513 14.8939C39.3242 10.6605 33.5899 8.27774 27.6075 8.2688H5.0625V27.6076H24.4013C26.1082 27.6164 27.7427 28.2984 28.9496 29.5054C30.1566 30.7124 30.8386 32.3469 30.8475 34.0538V50.1525C30.8475 56.135 33.2217 61.8728 37.4487 66.1062C41.6758 70.3396 47.4101 72.7224 53.3925 72.7313H75.9375V53.3925H56.5988Z" stroke="#7D887A" stroke-width="5" stroke-miterlimit="10"/>
<path d="M24.4014 40.5H56.5989" stroke="#7D887A" stroke-width="5" stroke-miterlimit="10"/>
<path d="M5.0625 1.8562V34.0537" stroke="#7D887A" stroke-width="5" stroke-miterlimit="10"/>
<path d="M75.9375 46.9463V79.1438" stroke="#7D887A" stroke-width="5" stroke-miterlimit="10"/>
</svg>
