<svg width="35" height="35" viewBox="0 0 35 35" fill="none" xmlns="http://www.w3.org/2000/svg">
<path d="M2.91663 10.2082L9.34788 3.77692C9.61921 3.50397 9.94188 3.28741 10.2973 3.13974C10.6527 2.99207 11.0338 2.9162 11.4187 2.9165H23.5812C23.9661 2.9162 24.3472 2.99207 24.7026 3.13974C25.058 3.28741 25.3807 3.50397 25.652 3.77692L32.0833 10.2082M2.91663 10.2082H32.0833M2.91663 10.2082V14.5832C2.91663 15.3567 3.22392 16.0986 3.7709 16.6456C4.31788 17.1925 5.05974 17.4998 5.83329 17.4998M32.0833 10.2082V14.5832C32.0833 15.3567 31.776 16.0986 31.229 16.6456C30.682 17.1925 29.9402 17.4998 29.1666 17.4998M5.83329 17.4998V29.1665C5.83329 29.9401 6.14058 30.6819 6.68756 31.2289C7.23455 31.7759 7.97641 32.0832 8.74996 32.0832H26.25C27.0235 32.0832 27.7654 31.7759 28.3124 31.2289C28.8593 30.6819 29.1666 29.9401 29.1666 29.1665V17.4998M5.83329 17.4998C6.68535 17.4529 7.4991 17.1305 8.15204 16.5811C8.32605 16.4553 8.53527 16.3877 8.74996 16.3877C8.96465 16.3877 9.17387 16.4553 9.34788 16.5811C10.0008 17.1305 10.8146 17.4529 11.6666 17.4998C12.5187 17.4529 13.3324 17.1305 13.9854 16.5811C14.1594 16.4553 14.3686 16.3877 14.5833 16.3877C14.798 16.3877 15.0072 16.4553 15.1812 16.5811C15.8341 17.1305 16.6479 17.4529 17.5 17.4998C18.352 17.4529 19.1658 17.1305 19.8187 16.5811C19.9927 16.4553 20.2019 16.3877 20.4166 16.3877C20.6313 16.3877 20.8405 16.4553 21.0145 16.5811C21.6675 17.1305 22.4812 17.4529 23.3333 17.4998C24.1853 17.4529 24.9991 17.1305 25.652 16.5811C25.826 16.4553 26.0353 16.3877 26.25 16.3877C26.4646 16.3877 26.6739 16.4553 26.8479 16.5811C27.5008 17.1305 28.3146 17.4529 29.1666 17.4998M21.875 32.0832V26.2498C21.875 25.4763 21.5677 24.7344 21.0207 24.1874C20.4737 23.6405 19.7318 23.3332 18.9583 23.3332H16.0416C15.2681 23.3332 14.5262 23.6405 13.9792 24.1874C13.4323 24.7344 13.125 25.4763 13.125 26.2498V32.0832" stroke="#383838" stroke-width="3" stroke-linecap="round" stroke-linejoin="round"/>
</svg>
